<?xml version="1.0" standalone="no"?>
<!DOCTYPE svg PUBLIC "-//W3C//DTD SVG 20010904//EN"
 "http://www.w3.org/TR/2001/REC-SVG-20010904/DTD/svg10.dtd">
<svg version="1.0" xmlns="http://www.w3.org/2000/svg"
 width="916.000000pt" height="980.000000pt" viewBox="0 0 916.000000 980.000000"
 preserveAspectRatio="xMidYMid meet">

<g transform="translate(0.000000,980.000000) scale(0.100000,-0.100000)"
fill="#000000" stroke="none">
<path d="M1389 9785 c-135 -19 -343 -97 -491 -182 -306 -176 -596 -497 -768
-848 -120 -245 -143 -364 -101 -526 51 -200 187 -449 286 -524 44 -35 55 -26
66 49 24 178 273 493 468 590 110 55 179 71 306 70 136 -1 241 -26 363 -88
205 -103 352 -289 428 -542 37 -123 40 -307 6 -434 -34 -123 -91 -254 -187
-425 -92 -165 -120 -224 -201 -424 -120 -296 -217 -424 -364 -483 -45 -18 -76
-22 -165 -22 -162 -1 -182 8 -453 199 -96 68 -160 56 -222 -41 -66 -105 -98
-255 -107 -509 -7 -211 0 -244 78 -395 123 -234 315 -428 534 -538 257 -129
559 -130 775 -5 89 52 251 215 329 333 122 183 183 324 322 741 144 435 164
477 497 1027 203 336 278 500 341 745 98 378 88 748 -29 1098 -174 524 -628
956 -1144 1089 -224 57 -392 71 -567 45z"/>
<path d="M6320 8293 c-124 -6 -364 -36 -500 -63 -860 -171 -1516 -741 -1734
-1507 -80 -280 -75 -534 19 -873 42 -155 59 -252 50 -288 -8 -35 -115 -215
-267 -452 -142 -221 -235 -402 -246 -480 -17 -117 20 -222 106 -302 99 -93
213 -128 420 -128 l135 0 -24 -29 c-13 -16 -43 -52 -66 -81 -84 -102 -89 -193
-17 -311 38 -64 41 -87 18 -166 -11 -38 -15 -83 -12 -146 3 -78 8 -101 33
-150 l29 -57 -18 -48 c-64 -162 -82 -272 -66 -400 32 -251 290 -462 630 -516
52 -8 194 -25 315 -36 303 -29 297 -28 317 -70 30 -62 42 -265 32 -550 -5
-140 -9 -321 -9 -401 0 -144 0 -146 28 -182 34 -45 74 -57 190 -57 176 0 1149
112 1216 141 23 9 23 13 17 77 -23 226 -194 936 -306 1272 -151 452 -299 691
-513 824 -261 163 -648 247 -1295 280 -139 7 -257 17 -261 22 -11 11 -41 217
-41 279 0 40 3 47 28 56 55 22 765 1 1072 -32 254 -27 576 -141 774 -273 247
-166 543 -573 901 -1241 124 -231 447 -884 516 -1042 46 -106 56 -122 73 -118
12 2 53 6 91 10 39 3 243 26 454 51 396 46 656 86 691 104 30 16 51 65 52 119
0 83 -41 152 -369 613 -563 792 -727 1087 -779 1406 -12 75 -15 136 -10 267
11 323 69 505 266 835 151 255 237 442 319 694 85 263 86 271 86 751 0 472 -1
485 -77 712 -142 432 -453 856 -788 1078 -214 141 -500 260 -790 329 -193 46
-538 85 -690 79z"/>
<path d="M1067 8059 c-32 -4 -77 -17 -102 -28 -108 -48 -231 -172 -302 -305
-34 -64 -38 -78 -38 -146 0 -87 19 -134 116 -292 125 -202 128 -268 18 -499
-28 -61 -54 -129 -56 -153 -10 -88 90 -217 216 -278 51 -26 81 -34 137 -36
178 -9 287 87 384 339 24 62 94 215 156 339 61 124 118 245 125 270 18 60 18
289 0 360 -35 143 -149 294 -268 358 -119 62 -267 90 -386 71z"/>
<path d="M1550 4339 c-46 -19 -92 -62 -110 -103 -10 -23 -26 -95 -35 -161 -38
-279 -100 -519 -242 -930 -157 -453 -367 -944 -688 -1605 -244 -502 -292 -635
-302 -831 -11 -203 29 -322 145 -430 115 -109 212 -146 433 -169 62 -6 382
-15 709 -21 327 -5 624 -13 660 -18 36 -6 133 -21 215 -36 335 -58 500 -42
673 63 145 88 248 211 298 357 24 68 28 96 28 190 1 175 -48 322 -168 504 -85
131 -101 162 -130 264 -61 210 -109 513 -176 1106 -77 675 -109 879 -171 1062
-153 457 -410 668 -909 749 -136 22 -192 24 -230 9z"/>
</g>
</svg>
