<?xml version="1.0" standalone="no"?>
<!DOCTYPE svg PUBLIC "-//W3C//DTD SVG 20010904//EN"
 "http://www.w3.org/TR/2001/REC-SVG-20010904/DTD/svg10.dtd">
<svg version="1.0" xmlns="http://www.w3.org/2000/svg"
 width="512.000000pt" height="512.000000pt" viewBox="0 0 512.000000 512.000000"
 preserveAspectRatio="xMidYMid meet">

<g transform="translate(0.000000,512.000000) scale(0.100000,-0.100000)"
fill="#000000" stroke="none">
<path d="M2213 5100 c-39 -23 -46 -36 -67 -125 -62 -264 -61 -555 5 -795 41
-151 95 -280 222 -530 232 -455 253 -505 286 -667 48 -231 12 -722 -68 -956
-52 -150 -145 -279 -238 -329 -95 -52 -154 -63 -323 -62 -123 1 -206 9 -400
38 -135 20 -308 41 -386 48 -416 34 -719 -88 -935 -374 -103 -138 -211 -380
-269 -606 -18 -72 -18 -84 -6 -126 21 -71 59 -128 126 -189 117 -109 262 -157
497 -164 l153 -5 33 33 c34 34 34 35 39 149 7 137 29 206 89 273 62 71 100 90
165 85 68 -6 128 -45 334 -219 292 -246 402 -324 580 -414 199 -100 396 -151
618 -162 857 -40 1821 579 2228 1432 148 311 189 527 189 995 0 242 -3 290
-23 400 -99 550 -324 1022 -637 1335 -199 200 -424 312 -646 323 -240 11 -442
-66 -663 -253 -35 -30 -67 -52 -69 -48 -12 20 -39 127 -53 208 -21 127 -28
369 -15 503 12 128 5 162 -44 200 -27 22 -34 22 -359 22 -310 0 -333 -1 -363
-20z m1504 -3912 c47 -44 27 -74 -114 -168 -295 -198 -603 -300 -904 -300
-152 0 -304 26 -341 58 -26 22 -23 68 6 87 22 15 32 14 127 -6 203 -41 470
-12 694 76 116 46 256 121 371 200 60 41 115 75 123 75 8 0 25 -10 38 -22z"/>
<path d="M838 4064 c-55 -29 -58 -49 -58 -339 l0 -265 -265 0 c-216 0 -271 -3
-295 -15 -61 -32 -60 -25 -60 -423 0 -320 2 -366 16 -388 34 -51 52 -54 339
-54 l265 0 0 -260 c0 -291 3 -305 64 -334 29 -14 80 -16 379 -16 468 0 436
-27 436 362 l1 247 269 3 c253 3 270 4 291 23 48 42 50 63 50 415 0 352 -2
373 -50 415 -21 19 -38 20 -291 23 l-269 3 0 247 c0 138 -5 263 -10 284 -6 20
-24 48 -41 62 l-31 26 -356 0 c-296 -1 -362 -3 -384 -16z"/>
</g>
</svg>
