<?xml version="1.0" standalone="no"?>
<!DOCTYPE svg PUBLIC "-//W3C//DTD SVG 20010904//EN"
 "http://www.w3.org/TR/2001/REC-SVG-20010904/DTD/svg10.dtd">
<svg version="1.0" xmlns="http://www.w3.org/2000/svg"
 width="800.000000pt" height="800.000000pt" viewBox="0 0 800.000000 800.000000"
 preserveAspectRatio="xMidYMid meet">

<g transform="translate(0.000000,800.000000) scale(0.100000,-0.100000)"
fill="#000000" stroke="none">
<path d="M3795 7711 c-626 -73 -1098 -460 -1296 -1062 -116 -355 -125 -726
-28 -1203 80 -393 186 -663 378 -965 66 -103 107 -180 99 -185 -2 -1 -24 -14
-49 -29 -65 -37 -195 -135 -255 -193 -226 -217 -380 -528 -443 -894 -15 -88
-31 -235 -31 -291 l0 -45 82 -24 c166 -48 238 -101 297 -219 54 -105 185 -662
226 -956 32 -228 47 -366 47 -455 1 -99 -1 -111 -25 -152 -14 -24 -43 -57 -65
-72 -44 -30 -132 -66 -163 -66 -11 0 -31 -11 -45 -25 -29 -29 -35 -30 -74 -10
-32 17 -55 72 -45 107 20 65 96 93 115 42 9 -24 14 -26 48 -19 60 10 115 42
141 80 23 34 24 41 18 153 -6 105 -12 163 -48 437 -6 44 -15 98 -20 120 -5 22
-21 99 -35 170 -35 178 -118 505 -140 550 -34 72 -143 120 -308 134 -218 19
-390 -25 -451 -115 -23 -33 -94 -303 -151 -570 -44 -206 -94 -593 -94 -729 0
-126 14 -159 85 -196 77 -41 100 -43 113 -14 26 56 107 16 119 -58 5 -32 1
-41 -30 -72 -41 -41 -64 -44 -92 -12 -11 13 -45 31 -76 40 -70 21 -143 69
-174 115 -43 63 -50 125 -37 301 7 86 24 228 37 316 14 88 32 201 40 251 24
155 127 559 175 688 25 65 102 154 166 192 24 14 70 32 101 40 109 28 111 29
118 92 14 120 47 311 71 412 56 225 118 361 269 591 84 127 102 159 93 159
-16 0 -123 -42 -178 -70 -432 -218 -985 -905 -1234 -1531 -80 -202 -192 -686
-183 -791 10 -108 102 -242 317 -458 495 -496 1131 -783 1988 -895 472 -61
1107 -69 1552 -19 611 68 1228 274 1645 548 311 204 674 563 736 726 102 269
-94 854 -488 1459 -273 419 -472 622 -871 890 -118 80 -310 186 -320 176 -5
-5 68 -110 143 -205 183 -231 272 -415 352 -725 l18 -70 60 -7 c83 -11 193
-66 244 -124 153 -174 144 -455 -20 -629 -170 -180 -482 -180 -647 -2 -88 96
-127 216 -120 362 6 113 41 197 114 275 44 47 166 120 200 120 19 0 18 40 -6
136 -72 301 -291 644 -588 922 -67 63 -124 122 -127 132 -7 23 3 44 106 216
131 222 195 361 276 598 218 647 214 1253 -12 1721 -83 171 -163 284 -300 421
-235 235 -518 384 -847 444 -126 23 -362 33 -473 21z m-732 -1045 c41 -8 150
-39 243 -69 334 -109 425 -128 651 -134 307 -9 554 40 744 149 58 33 150 73
154 66 15 -27 139 -269 175 -343 79 -163 120 -338 120 -520 l0 -70 108 108
c59 59 110 107 112 107 10 0 -10 -214 -31 -340 -51 -306 -172 -653 -320 -915
-145 -256 -375 -478 -609 -589 -136 -64 -211 -79 -415 -79 -154 0 -192 3 -260
22 -337 91 -648 387 -868 827 -120 241 -192 490 -212 742 -8 96 -12 94 106 65
38 -9 71 -14 73 -12 2 2 -7 76 -21 164 -31 201 -34 373 -9 465 17 64 69 198
120 313 29 65 27 64 139 43z m207 -2656 c22 -11 70 -40 108 -64 149 -96 282
-146 446 -166 107 -14 298 -9 401 10 135 25 315 98 423 172 24 17 46 27 49 24
9 -8 -66 -130 -143 -231 -37 -49 -142 -184 -234 -300 -192 -241 -274 -352
-303 -412 -12 -24 -24 -43 -28 -43 -21 0 -196 217 -394 490 -122 168 -375 529
-375 535 0 9 10 6 50 -15z m1698 -2042 l2 -168 145 0 145 0 0 -110 0 -109
-147 -3 -148 -3 -3 -167 -2 -168 -130 0 -130 0 0 170 0 170 -150 0 -150 0 0
110 0 110 150 0 150 0 0 164 0 165 38 4 c20 2 80 4 132 3 l95 -1 3 -167z"/>
</g>
</svg>
