<?xml version="1.0" standalone="no"?>
<!DOCTYPE svg PUBLIC "-//W3C//DTD SVG 20010904//EN"
 "http://www.w3.org/TR/2001/REC-SVG-20010904/DTD/svg10.dtd">
<svg version="1.0" xmlns="http://www.w3.org/2000/svg"
 width="32.000000pt" height="32.000000pt" viewBox="0 0 32.000000 32.000000"
 preserveAspectRatio="xMidYMid meet">

<g transform="translate(0.000000,32.000000) scale(0.100000,-0.100000)"
fill="#000000" stroke="none">
<path d="M98 305 c-35 -20 -48 -44 -48 -92 0 -21 -4 -44 -9 -52 -12 -19 11
-41 43 -41 36 0 79 -18 97 -42 13 -17 19 -19 37 -9 12 7 22 18 22 27 0 8 11
36 26 63 23 46 24 51 11 83 -8 18 -24 42 -36 52 -28 25 -107 31 -143 11z"/>
<path d="M62 83 c2 -12 14 -19 34 -21 23 -2 35 -11 46 -35 l16 -32 13 29 c12
26 11 30 -14 52 -35 30 -100 34 -95 7z"/>
</g>
</svg>
