<?xml version="1.0" standalone="no"?>
<!DOCTYPE svg PUBLIC "-//W3C//DTD SVG 20010904//EN"
 "http://www.w3.org/TR/2001/REC-SVG-20010904/DTD/svg10.dtd">
<svg version="1.0" xmlns="http://www.w3.org/2000/svg"
 width="32.000000pt" height="32.000000pt" viewBox="0 0 32.000000 32.000000"
 preserveAspectRatio="xMidYMid meet">

<g transform="translate(0.000000,32.000000) scale(0.100000,-0.100000)"
fill="#000000" stroke="none">
<path d="M38 303 c-42 -49 -49 -100 -19 -149 24 -39 54 -48 84 -24 19 16 21
22 11 48 -10 25 -9 30 2 25 19 -7 18 -72 -2 -94 -35 -39 -5 -109 46 -109 51 0
81 70 46 109 -20 22 -21 87 -2 94 11 5 12 0 2 -25 -10 -26 -8 -32 11 -48 30
-24 60 -15 84 24 25 41 24 86 -4 127 -24 36 -59 48 -83 29 -17 -15 -18 -52 -2
-68 7 -7 8 -12 2 -12 -6 0 -15 5 -22 12 -16 16 -28 2 -13 -16 8 -10 9 -16 1
-21 -5 -3 -10 -22 -10 -41 0 -19 -4 -34 -10 -34 -5 0 -10 15 -10 34 0 19 -5
38 -10 41 -8 5 -7 11 1 21 15 18 3 32 -13 16 -7 -7 -16 -12 -22 -12 -6 0 -5 5
2 12 7 7 12 21 12 33 0 44 -53 61 -82 28z m136 -226 c11 -10 10 -15 -1 -25
-18 -18 -46 6 -29 25 14 16 15 16 30 0z"/>
</g>
</svg>
