<?xml version="1.0" standalone="no"?>
<!DOCTYPE svg PUBLIC "-//W3C//DTD SVG 20010904//EN"
 "http://www.w3.org/TR/2001/REC-SVG-20010904/DTD/svg10.dtd">
<svg version="1.0" xmlns="http://www.w3.org/2000/svg"
 width="32.000000pt" height="32.000000pt" viewBox="0 0 32.000000 32.000000"
 preserveAspectRatio="xMidYMid meet">

<g transform="translate(0.000000,32.000000) scale(0.100000,-0.100000)"
fill="#000000" stroke="none">
<path d="M30 300 c0 -14 22 -34 73 -66 39 -25 80 -56 89 -68 17 -20 18 -20 35
-3 17 18 17 19 0 30 -11 7 -55 38 -98 70 -44 31 -84 57 -89 57 -6 0 -10 -9
-10 -20z"/>
<path d="M143 265 c41 -30 80 -55 85 -55 17 0 25 -40 12 -55 -16 -20 -49 -19
-56 0 -5 13 -136 105 -149 105 -3 0 -5 -17 -5 -39 l0 -38 59 -13 c82 -17 85
-20 72 -66 -16 -57 -14 -104 4 -104 11 0 15 13 17 48 l1 47 7 -45 c7 -41 7
-39 5 17 -3 61 -2 61 26 65 42 6 53 -12 45 -77 -8 -67 9 -74 18 -9 11 81 7
112 -19 150 -30 44 -141 124 -174 124 -18 0 -7 -12 52 -55z m124 -117 c-3 -8
-6 -5 -6 6 -1 11 2 17 5 13 3 -3 4 -12 1 -19z"/>
<path d="M204 104 c3 -9 6 -36 6 -60 0 -36 3 -44 19 -44 14 0 20 10 25 37 12
74 9 83 -25 83 -24 0 -30 -3 -25 -16z"/>
</g>
</svg>
