<?xml version="1.0" standalone="no"?>
<!DOCTYPE svg PUBLIC "-//W3C//DTD SVG 20010904//EN"
 "http://www.w3.org/TR/2001/REC-SVG-20010904/DTD/svg10.dtd">
<svg version="1.0" xmlns="http://www.w3.org/2000/svg"
 width="1300.000000pt" height="708.000000pt" viewBox="0 0 1300.000000 708.000000"
 preserveAspectRatio="xMidYMid meet">

<g transform="translate(0.000000,708.000000) scale(0.100000,-0.100000)"
fill="#000000" stroke="none">
<path d="M760 5450 c0 -40 4 -70 10 -70 6 0 10 5 10 10 0 22 22 8 33 -20 6
-16 15 -30 20 -30 4 0 6 4 3 8 -2 4 -1 14 4 21 10 17 25 -40 21 -84 -1 -23 0
-27 8 -15 8 11 11 1 12 -40 1 -43 3 -49 9 -30 7 21 8 19 9 -17 1 -24 6 -43 11
-43 6 0 10 -9 10 -20 0 -11 5 -20 10 -20 6 0 10 -13 10 -30 0 -16 5 -30 10
-30 6 0 10 -9 10 -20 0 -11 5 -20 10 -20 6 0 10 -13 10 -30 0 -17 5 -30 13
-30 8 0 7 -4 -3 -10 -10 -6 -11 -10 -2 -10 7 0 12 -13 12 -30 0 -16 5 -30 10
-30 6 0 10 -9 10 -20 0 -11 6 -20 13 -20 9 0 12 -10 9 -31 -3 -22 -1 -30 7
-25 6 4 11 1 11 -8 0 -8 4 -16 10 -18 5 -1 11 -15 12 -30 1 -16 6 -28 10 -28
4 0 8 -14 8 -31 0 -17 4 -28 10 -24 6 4 10 -9 10 -32 0 -28 3 -34 10 -23 7 11
10 7 10 -17 0 -20 5 -33 13 -33 8 0 7 -4 -3 -10 -10 -6 -11 -10 -2 -10 6 0 12
-9 12 -20 0 -11 5 -20 10 -20 6 0 10 -13 10 -30 0 -16 5 -30 10 -30 6 0 10 -9
10 -20 0 -11 5 -20 10 -20 6 0 10 -13 10 -30 0 -17 5 -30 13 -30 8 0 7 -4 -3
-10 -10 -6 -11 -10 -2 -10 6 0 12 -10 12 -22 0 -12 3 -18 7 -15 9 9 32 -40 35
-73 1 -16 6 -26 10 -24 4 3 8 -6 8 -20 0 -14 5 -26 10 -26 6 0 10 -13 10 -30
0 -16 5 -30 10 -30 6 0 10 -9 10 -20 0 -11 5 -20 10 -20 6 0 10 -18 10 -40 0
-22 5 -40 10 -40 6 0 10 -13 10 -30 0 -16 5 -30 10 -30 6 0 10 -9 10 -20 0
-11 5 -20 10 -20 6 0 10 -13 10 -30 0 -16 5 -30 10 -30 6 0 10 -13 10 -30 0
-16 5 -30 10 -30 6 0 10 -9 10 -20 0 -11 5 -20 10 -20 6 0 10 -9 10 -20 0 -11
5 -20 10 -20 6 0 10 -15 10 -32 0 -25 3 -29 10 -18 8 12 10 11 10 -7 0 -22 3
-23 104 -23 85 0 105 3 110 16 11 28 6 41 -20 53 -19 8 -25 17 -21 31 3 11 1
20 -4 20 -5 0 -9 9 -9 20 0 11 -4 20 -10 20 -5 0 -10 11 -10 24 0 14 -4 28
-10 31 -5 3 -10 19 -10 36 0 16 -4 29 -10 29 -5 0 -10 9 -10 20 0 11 -3 20 -7
20 -9 0 -33 49 -33 67 0 7 -4 13 -10 13 -5 0 -10 13 -10 29 0 16 -4 31 -9 33
-5 2 -11 14 -13 28 -1 14 -6 28 -10 31 -5 3 -9 17 -10 31 -1 15 -6 24 -10 22
-4 -3 -8 6 -8 20 0 14 -4 26 -10 26 -5 0 -10 14 -10 30 0 17 -4 30 -10 30 -5
0 -10 14 -10 30 0 17 -4 30 -10 30 -5 0 -10 14 -10 30 0 17 -4 30 -10 30 -5 0
-10 9 -10 19 0 11 -5 21 -11 23 -6 2 -11 20 -11 41 0 20 -4 34 -9 31 -5 -3 -9
7 -9 23 0 22 -2 25 -10 13 -8 -12 -10 -10 -10 10 0 18 -3 21 -9 11 -6 -10 -9
-2 -9 24 0 21 -6 41 -13 46 -11 7 -11 9 1 9 9 0 11 3 5 8 -5 4 -11 14 -13 22
-2 8 -8 17 -13 18 -5 2 -9 16 -9 32 0 16 -4 30 -10 32 -5 2 -11 15 -12 31 -1
15 -6 27 -10 27 -4 0 -8 14 -8 30 0 17 -4 30 -10 30 -5 0 -10 9 -10 20 0 11
-4 20 -10 20 -5 0 -10 14 -10 30 0 17 -4 30 -10 30 -5 0 -10 15 -10 33 0 24
-3 28 -10 17 -8 -12 -10 -11 -10 8 0 12 -4 22 -8 22 -4 0 -9 12 -10 28 -1 15
-7 29 -12 30 -6 2 -10 12 -10 23 0 10 -4 19 -10 19 -5 0 -10 14 -10 30 0 17
-4 30 -8 30 -4 0 -9 12 -10 28 -1 15 -7 29 -12 30 -6 2 -10 21 -10 43 0 21 -4
39 -10 39 -5 0 -10 9 -10 19 0 11 -4 21 -10 23 -5 2 -10 20 -12 41 -1 20 -6
37 -10 37 -4 0 -8 11 -8 25 0 14 -11 37 -25 50 -23 23 -31 25 -130 25 l-105 0
0 -70z m285 -610 c3 -5 1 -10 -4 -10 -6 0 -11 5 -11 10 0 6 2 10 4 10 3 0 8
-4 11 -10z"/>
<path d="M2460 5489 c0 -26 2 -28 19 -19 27 14 38 13 38 -4 0 -8 -6 -12 -15
-9 -11 5 -12 2 -4 -13 5 -10 8 -34 6 -53 -2 -19 1 -39 6 -46 13 -15 12 -207
-1 -199 -5 3 -9 -24 -9 -60 0 -36 5 -68 10 -71 6 -3 10 -22 10 -41 0 -19 -4
-33 -8 -30 -4 2 -9 -5 -9 -17 -2 -17 0 -19 7 -7 6 10 10 -28 10 -110 0 -84 -3
-120 -10 -110 -7 12 -10 8 -10 -15 0 -23 3 -27 10 -15 8 13 10 12 10 -2 0 -10
-4 -18 -10 -18 -6 0 -9 -58 -8 -157 l2 -158 6 155 c4 105 6 27 7 -240 1 -228
-2 -387 -7 -375 -6 13 -8 -3 -8 -50 1 -69 1 -69 8 -20 6 44 7 39 7 -35 1 -56
-2 -76 -7 -60 -6 19 -8 11 -9 -33 -1 -36 3 -56 9 -52 6 4 10 -12 10 -39 l0
-46 100 0 100 0 0 974 c0 764 -3 976 -13 979 -9 4 -9 8 2 15 9 7 -30 10 -118
10 l-131 0 0 -29z m247 -1351 c-3 -8 -6 -5 -6 6 -1 11 2 17 5 13 3 -3 4 -12 1
-19z m-1 -222 c0 -14 -3 -23 -7 -20 -6 3 -6 22 0 42 3 10 7 -2 7 -22z m-189
-258 c-3 -8 -6 -5 -6 6 -1 11 2 17 5 13 3 -3 4 -12 1 -19z"/>
<path d="M5786 5508 c3 -4 -6 -8 -21 -8 l-25 0 0 -404 c1 -373 -1 -406 -17
-425 -17 -21 -50 -30 -38 -11 3 6 -1 13 -9 16 -9 3 -14 10 -11 14 5 8 -28 50
-39 50 -3 0 -6 -9 -6 -20 0 -11 5 -20 11 -20 5 0 8 -4 4 -9 -3 -5 2 -16 10
-24 8 -9 15 -23 15 -31 0 -9 5 -16 10 -16 6 0 10 -13 10 -29 0 -16 5 -31 11
-33 6 -2 11 -30 12 -62 1 -35 4 -50 8 -39 5 11 8 -6 8 -42 1 -43 4 -56 11 -45
7 11 10 5 11 -25 0 -32 2 -36 9 -20 6 13 9 -20 9 -92 1 -77 -3 -113 -10 -113
-7 0 -9 -10 -7 -24 3 -14 2 -30 -2 -36 -4 -6 -7 3 -8 20 0 18 -3 35 -6 38 -5
4 -11 -126 -7 -150 0 -5 -2 -8 -7 -8 -4 0 -8 -17 -10 -38 -1 -20 -7 -39 -12
-40 -6 -2 -10 -17 -10 -33 0 -18 -4 -28 -10 -24 -6 4 -10 -6 -10 -22 0 -22 -2
-25 -10 -13 -7 12 -10 8 -10 -15 0 -16 5 -37 10 -45 8 -13 10 -12 10 3 0 9 9
26 20 37 11 11 20 16 20 11 0 -5 9 -13 20 -16 18 -6 20 -16 21 -118 1 -72 4
-103 9 -87 8 24 8 24 9 3 1 -17 7 -23 24 -24 21 -1 21 -1 -3 -9 -16 -5 13 -8
80 -8 67 0 98 3 85 8 -17 7 -17 9 -2 9 20 1 22 21 5 40 -11 11 -10 13 0 7 10
-6 12 187 12 963 l0 971 -90 -2 c-49 -1 -87 -5 -84 -10z m122 -9 c-2 -6 -8
-10 -13 -10 -5 0 -11 4 -13 10 -2 6 4 11 13 11 9 0 15 -5 13 -11z m37 1 c-3
-5 -10 -10 -16 -10 -5 0 -9 5 -9 10 0 6 7 10 16 10 8 0 12 -4 9 -10z m-188
-122 c-2 -24 -4 -7 -4 37 0 44 2 63 4 43 2 -21 2 -57 0 -80z m-20 -980 c-3 -8
-6 -5 -6 6 -1 11 2 17 5 13 3 -3 4 -12 1 -19z m20 -780 c-3 -8 -6 -5 -6 6 -1
11 2 17 5 13 3 -3 4 -12 1 -19z"/>
<path d="M10028 4933 c6 -2 18 -2 25 0 6 3 1 5 -13 5 -14 0 -19 -2 -12 -5z"/>
<path d="M10093 4933 c9 -2 25 -2 35 0 9 3 1 5 -18 5 -19 0 -27 -2 -17 -5z"/>
<path d="M3537 4913 c-14 -14 -6 -20 19 -15 19 3 22 7 12 13 -16 11 -23 11
-31 2z"/>
<path d="M5040 4910 c0 -5 -13 -10 -30 -10 -16 0 -30 -4 -30 -10 0 -5 -9 -10
-20 -10 -11 0 -20 -4 -20 -10 0 -5 -12 -10 -26 -10 -17 0 -39 -14 -64 -40 -24
-25 -40 -35 -43 -27 -4 9 -6 9 -6 0 -2 -24 -5 -28 -63 -85 -32 -31 -58 -64
-58 -72 0 -9 -4 -16 -10 -16 -5 0 -10 -9 -10 -20 0 -11 -4 -20 -10 -20 -5 0
-10 -15 -10 -32 0 -25 -3 -29 -10 -18 -7 11 -10 3 -10 -30 0 -33 -3 -41 -10
-30 -7 11 -10 -3 -10 -47 0 -35 -4 -63 -10 -63 -6 0 -10 -50 -10 -130 0 -80 4
-130 10 -130 6 0 10 -22 10 -50 0 -27 5 -50 10 -50 6 0 10 -22 10 -50 0 -27 5
-50 10 -50 6 0 10 -9 10 -20 0 -11 5 -20 10 -20 6 0 10 -7 10 -16 0 -8 5 -12
10 -9 6 3 10 -3 10 -14 0 -12 5 -21 10 -21 6 0 10 -10 10 -22 0 -19 2 -20 10
-8 8 12 10 11 10 -5 0 -11 9 -27 20 -35 11 -8 16 -17 11 -20 -4 -3 3 -15 16
-28 12 -12 23 -18 23 -12 0 7 5 6 14 -2 10 -9 11 -15 2 -20 -7 -5 -3 -8 9 -8
11 0 27 -9 35 -20 8 -12 26 -20 42 -20 15 0 28 -4 28 -10 0 -5 9 -10 20 -10
11 0 20 -4 20 -10 0 -5 12 -10 28 -11 24 0 25 -1 7 -9 -17 -7 -15 -9 13 -9 17
-1 32 4 32 9 0 6 -5 10 -11 10 -5 0 -7 5 -4 10 3 6 1 10 -5 10 -16 0 -100 87
-100 105 0 8 -4 15 -10 15 -5 0 -10 9 -10 20 0 11 -4 20 -10 20 -5 0 -10 9
-10 20 0 11 -4 20 -8 20 -4 0 -9 12 -10 28 -1 15 -7 29 -12 30 -6 2 -10 22
-10 45 0 31 -3 38 -10 27 -7 -11 -10 4 -10 50 0 46 -3 61 -10 50 -7 -10 -10
63 -9 220 0 147 4 229 9 220 7 -10 10 2 10 40 0 39 3 51 10 40 7 -11 10 0 10
38 0 33 4 51 10 47 6 -4 10 5 10 19 0 14 5 26 10 26 6 0 10 14 10 31 0 17 4
28 10 24 6 -3 10 0 10 9 0 8 4 16 9 18 5 2 11 9 13 17 4 21 85 101 101 101 7
0 19 9 27 20 8 11 22 20 32 20 10 0 18 5 18 10 0 6 -13 10 -30 10 -16 0 -30
-4 -30 -10z m-253 -717 c-3 -10 -5 -2 -5 17 0 19 2 27 5 18 2 -10 2 -26 0 -35z
m0 -45 c-3 -8 -6 -5 -6 6 -1 11 2 17 5 13 3 -3 4 -12 1 -19z m20 -200 c-3 -8
-6 -5 -6 6 -1 11 2 17 5 13 3 -3 4 -12 1 -19z m63 -308 c0 -5 -4 -10 -10 -10
-5 0 -10 5 -10 10 0 6 5 10 10 10 6 0 10 -4 10 -10z m37 -13 c-2 -6 -11 -11
-21 -13 -13 -2 -14 1 -7 10 6 7 8 16 4 20 -4 4 1 4 10 0 10 -3 16 -11 14 -17z"/>
<path d="M6695 4910 c-3 -5 1 -10 9 -10 9 0 16 5 16 10 0 6 -4 10 -9 10 -6 0
-13 -4 -16 -10z"/>
<path d="M7620 4429 c0 -324 3 -488 10 -484 6 4 10 -12 10 -39 0 -25 5 -46 10
-46 6 0 10 -12 10 -26 0 -14 4 -23 10 -19 6 4 10 -7 10 -24 0 -17 5 -31 10
-31 6 0 10 -9 10 -20 0 -14 7 -20 23 -21 12 0 17 -3 10 -5 -17 -7 51 -74 74
-74 15 0 16 -2 3 -10 -12 -8 -11 -10 8 -10 12 0 22 -4 22 -10 0 -5 9 -10 20
-10 11 0 20 -4 20 -10 0 -5 9 -10 20 -10 11 0 20 -4 20 -10 0 -5 9 -10 20 -10
11 0 20 -4 20 -10 0 -5 18 -10 39 -10 22 0 43 5 46 10 3 6 1 10 -5 10 -6 0
-29 18 -50 40 -42 44 -52 49 -44 23 4 -13 3 -15 -4 -5 -5 7 -7 24 -4 38 2 14
0 24 -7 24 -6 0 -11 9 -11 20 0 11 -4 20 -10 20 -5 0 -10 14 -10 30 0 17 -4
30 -10 30 -5 0 -10 19 -11 43 0 32 -2 37 -9 22 -6 -14 -9 -1 -10 45 -1 46 -4
59 -10 45 -5 -12 -9 193 -9 483 l-1 502 -110 0 -110 0 0 -491z"/>
<path d="M8780 4479 c0 -291 -3 -438 -10 -434 -6 4 -10 -8 -10 -29 0 -22 -5
-36 -12 -36 -9 0 -8 -4 2 -10 10 -6 11 -10 3 -10 -8 0 -13 -15 -13 -40 0 -22
-4 -40 -10 -40 -5 0 -10 -10 -9 -22 0 -13 3 -17 6 -10 13 33 49 -4 55 -58 2
-14 7 -28 12 -32 6 -4 6 -12 -1 -20 -6 -7 -11 -56 -12 -108 -1 -67 2 -91 9
-80 6 10 10 11 10 3 0 -7 10 -13 23 -14 21 -1 21 -1 -3 -9 -16 -5 13 -8 80 -8
67 0 96 3 80 8 -24 8 -24 8 -2 9 l22 1 0 690 0 690 -110 0 -110 0 0 -441z
m200 421 c0 -5 -4 -10 -10 -10 -5 0 -10 5 -10 10 0 6 5 10 10 10 6 0 10 -4 10
-10z m-183 -42 c-3 -7 -5 -2 -5 12 0 14 2 19 5 13 2 -7 2 -19 0 -25z m0 -550
c-1 -95 -3 -20 -3 167 0 187 2 265 3 173 2 -92 2 -245 0 -340z m180 -40 c-3
-8 -6 -5 -6 6 -1 11 2 17 5 13 3 -3 4 -12 1 -19z m0 -60 c-3 -8 -6 -5 -6 6 -1
11 2 17 5 13 3 -3 4 -12 1 -19z m6 -221 c4 -115 2 -157 -6 -157 -11 0 -14 106
-8 279 3 91 10 30 14 -122z m-3 -261 c-3 -52 -9 -98 -14 -103 -5 -5 -6 21 -2
62 3 39 6 85 6 103 0 17 3 32 8 32 4 0 5 -42 2 -94z"/>
<path d="M9320 4551 c0 -236 -4 -372 -10 -376 -15 -10 -13 -215 3 -215 8 0 7
-4 -3 -10 -10 -6 -11 -10 -2 -10 9 0 12 -49 12 -210 l0 -210 103 0 c69 0 97 3
87 10 -8 5 -10 10 -3 10 6 0 9 9 6 20 -6 22 12 28 20 8 3 -7 6 7 6 32 0 31 -2
40 -8 30 -6 -8 -8 -17 -5 -21 2 -4 1 -10 -3 -12 -5 -3 -7 144 -5 326 2 194 7
333 13 335 5 2 9 32 9 67 0 35 5 67 10 70 6 3 10 22 10 41 0 22 4 33 10 29 6
-4 10 -3 9 2 -4 24 2 53 11 48 6 -4 10 5 10 19 0 32 -13 33 -28 4 -8 -17 -11
-19 -11 -6 -1 9 -7 18 -13 20 -8 3 -12 21 -12 46 1 23 -2 42 -7 42 -5 0 -9 33
-9 74 0 42 -5 78 -10 81 -8 5 -8 11 0 20 8 10 7 14 -2 18 -10 4 -10 6 0 6 6 1
12 10 12 20 0 11 -6 21 -12 24 -10 3 -10 7 1 20 12 16 5 17 -88 17 l-101 0 0
-369z m43 -1018 c-7 -2 -19 -2 -25 0 -7 3 -2 5 12 5 14 0 19 -2 13 -5z"/>
<path d="M9960 4910 c0 -5 -15 -10 -32 -10 -25 0 -29 -3 -18 -10 16 -10 9 -13
-30 -11 -20 2 -22 0 -10 -8 12 -9 11 -11 -7 -11 -13 0 -23 -6 -23 -12 0 -9 -4
-8 -10 2 -8 12 -10 9 -10 -13 0 -16 -4 -26 -10 -22 -5 3 -10 1 -10 -4 0 -6
-10 -11 -22 -12 -13 0 -17 -3 -10 -6 20 -8 14 -22 -8 -16 -16 4 -20 0 -20 -18
0 -19 -2 -21 -10 -9 -8 13 -10 12 -10 -3 0 -11 -14 -32 -30 -47 -20 -19 -26
-30 -18 -33 10 -4 10 -6 1 -6 -7 -1 -13 -10 -13 -21 0 -11 -13 -29 -30 -41
-16 -12 -27 -26 -24 -31 3 -5 18 5 34 22 15 16 32 30 38 30 5 0 23 14 40 30
18 17 39 30 47 30 8 0 15 5 15 10 0 6 10 10 23 10 18 0 19 2 7 10 -11 7 -6 10
20 10 26 0 31 3 20 10 -11 7 -7 10 18 10 20 0 31 4 27 10 -4 6 29 10 92 11 70
1 88 4 63 9 -31 7 -28 8 23 9 36 0 64 7 73 15 18 19 18 36 -1 36 -13 0 -15 7
-9 38 4 20 11 40 17 43 5 4 -36 7 -92 8 -63 1 -101 -2 -101 -9z"/>
<path d="M10760 4910 c0 -5 9 -10 20 -10 11 0 20 5 20 10 0 6 -9 10 -20 10
-11 0 -20 -4 -20 -10z"/>
<path d="M3465 4890 c3 -6 -5 -10 -19 -10 -13 0 -26 -4 -28 -9 -1 -5 -14 -11
-28 -13 -14 -1 -32 -11 -41 -20 -9 -10 -22 -18 -29 -18 -7 0 -11 -3 -7 -6 8
-8 -18 -34 -34 -34 -7 0 -10 -3 -6 -6 7 -8 -36 -53 -45 -47 -5 2 -8 -1 -8 -7
0 -7 -13 -25 -30 -40 -16 -15 -30 -34 -30 -42 0 -7 -9 -20 -20 -28 -12 -8 -20
-26 -20 -42 0 -15 -4 -28 -10 -28 -5 0 -10 -9 -10 -20 0 -13 -7 -20 -20 -20
-17 0 -20 -7 -20 -40 0 -25 -5 -40 -12 -40 -9 0 -8 -4 2 -10 9 -6 10 -10 3
-10 -9 0 -12 -45 -11 -179 1 -99 5 -178 10 -175 4 3 8 -15 8 -40 0 -25 5 -46
10 -46 6 0 10 -7 10 -15 0 -9 9 -25 20 -37 11 -12 20 -32 20 -45 0 -14 4 -21
10 -18 6 3 10 -1 10 -9 0 -9 5 -16 10 -16 6 0 10 -8 10 -18 0 -10 9 -24 20
-32 11 -8 20 -24 20 -35 0 -12 3 -16 8 -9 5 9 11 8 20 -2 8 -9 9 -14 2 -14 -6
0 5 -16 24 -35 23 -22 45 -35 63 -36 15 0 22 -3 16 -6 -17 -6 9 -33 31 -33 9
0 16 -4 16 -10 0 -5 15 -10 33 -10 24 0 28 -3 17 -10 -12 -8 -11 -10 8 -10 12
0 22 -4 22 -10 0 -14 47 -13 56 2 4 7 3 8 -4 4 -7 -4 -12 -2 -12 4 0 17 -26
40 -44 40 -9 0 -16 8 -16 20 0 11 -3 19 -7 19 -20 -3 -34 2 -28 11 3 6 -1 10
-9 10 -9 0 -16 8 -16 19 0 11 -4 21 -9 23 -5 2 -11 10 -13 18 -2 8 -11 22 -20
31 -10 9 -18 28 -18 43 0 14 -4 26 -10 26 -5 0 -10 14 -10 30 0 17 -4 30 -10
30 -6 0 -10 27 -10 60 0 33 -4 60 -10 60 -6 0 -10 43 -10 110 0 67 4 110 10
110 6 0 10 9 10 20 0 11 -4 20 -10 20 -6 0 -10 40 -10 100 0 60 4 100 10 100
6 0 10 18 10 40 0 22 5 40 10 40 6 0 10 18 10 40 0 22 5 40 10 40 6 0 10 12
10 26 0 14 4 23 10 19 6 -3 10 3 10 14 0 12 5 21 10 21 6 0 10 9 10 20 0 11 5
20 10 20 6 0 10 7 10 16 0 20 24 44 44 44 14 0 17 5 16 25 -1 10 28 35 40 35
12 0 40 24 40 34 0 3 -14 6 -31 6 -17 0 -28 -4 -24 -10z"/>
<path d="M5448 4895 c-8 -8 57 -75 73 -75 6 0 24 -14 40 -31 16 -18 32 -29 35
-26 3 3 -10 22 -30 42 -20 20 -34 40 -30 46 3 5 2 9 -3 8 -22 -4 -43 2 -38 11
3 6 -3 10 -14 10 -10 0 -21 5 -23 11 -2 5 -6 7 -10 4z"/>
<path d="M6618 4890 c-1 -5 -15 -11 -30 -12 -16 -1 -28 -6 -28 -10 0 -4 -8 -8
-18 -8 -10 0 -24 -9 -32 -20 -8 -11 -20 -20 -28 -20 -17 0 -43 -25 -35 -34 4
-3 -2 -6 -13 -6 -12 0 -15 -3 -8 -8 9 -5 8 -11 -2 -20 -9 -8 -14 -9 -14 -2 0
7 -5 6 -14 -2 -10 -9 -11 -15 -2 -20 7 -5 4 -8 -7 -8 -22 0 -87 -64 -87 -85 0
-8 -4 -15 -10 -15 -5 0 -10 -9 -10 -20 0 -11 -4 -20 -10 -20 -5 0 -10 -10 -10
-22 0 -19 -2 -20 -10 -8 -7 11 -10 4 -10 -27 0 -24 -4 -43 -10 -43 -5 0 -10
-15 -10 -32 0 -25 -3 -29 -10 -18 -7 11 -10 -1 -11 -40 -1 -43 -3 -49 -9 -30
-5 15 -8 -31 -9 -118 -1 -93 2 -141 9 -137 6 4 10 -16 10 -52 0 -41 3 -54 10
-43 8 12 10 9 10 -12 0 -15 5 -30 10 -33 6 -3 10 -19 10 -36 0 -18 5 -29 14
-29 9 0 12 -8 8 -25 -3 -19 4 -32 27 -54 17 -16 31 -34 31 -40 0 -17 147 -161
165 -161 8 0 15 -4 15 -10 0 -5 9 -10 20 -10 11 0 20 -4 20 -10 0 -5 9 -10 20
-10 11 0 20 -4 20 -10 0 -5 14 -10 30 -10 17 0 30 3 30 6 0 8 -28 35 -36 33
-12 -3 -44 25 -44 40 0 7 -9 21 -19 30 -11 10 -21 24 -23 32 -2 8 -10 21 -18
29 -18 18 -40 77 -41 111 0 22 -1 23 -9 4 -7 -16 -9 -13 -9 18 -1 20 -5 37
-11 37 -5 0 -10 18 -10 40 0 22 -4 40 -10 40 -6 0 -10 86 -10 238 0 157 4 232
10 222 7 -11 10 -1 10 35 0 36 3 46 10 35 7 -11 10 4 11 50 1 48 3 58 9 40 8
-24 8 -23 9 8 1 17 6 32 11 32 6 0 10 9 10 20 0 11 5 20 10 20 6 0 10 9 10 19
0 11 6 22 13 24 9 4 9 6 -2 6 -7 1 0 13 18 30 17 16 31 36 31 45 0 9 7 16 16
16 9 0 29 14 44 30 15 17 35 30 44 30 9 0 16 5 16 10 0 13 -57 13 -62 0z
m-138 -1229 c7 -14 7 -22 -2 -27 -7 -4 -8 -3 -4 4 4 7 1 12 -8 12 -10 0 -13 6
-10 15 8 20 11 19 24 -4z"/>
<path d="M10152 4870 c0 -19 2 -27 5 -17 2 9 2 25 0 35 -3 9 -5 1 -5 -18z"/>
<path d="M10680 4890 c0 -5 -9 -10 -20 -10 -11 0 -20 -6 -20 -12 0 -9 -4 -8
-10 2 -6 10 -10 11 -10 3 0 -7 -7 -13 -16 -13 -8 0 -33 -18 -55 -40 -22 -22
-46 -40 -54 -40 -8 0 -14 -3 -14 -7 3 -21 -3 -33 -16 -33 -20 0 -105 -85 -105
-105 0 -8 -4 -15 -10 -15 -5 0 -10 -9 -10 -20 0 -11 -4 -20 -10 -20 -5 0 -10
-13 -10 -30 0 -16 -4 -30 -10 -30 -5 0 -10 -15 -10 -32 0 -25 -3 -29 -10 -18
-7 11 -10 -1 -10 -40 0 -39 -3 -51 -10 -40 -7 11 -10 -4 -10 -50 0 -46 -3 -61
-10 -50 -7 11 -10 -3 -9 -45 0 -43 3 -54 9 -40 6 14 9 -2 9 -52 1 -47 5 -73
14 -76 10 -4 10 -6 0 -6 -15 -1 -18 -31 -3 -31 6 0 10 -24 10 -52 0 -38 3 -49
10 -38 7 11 10 7 10 -17 0 -18 5 -33 10 -33 6 0 10 -8 10 -18 0 -10 9 -24 20
-32 11 -8 20 -21 20 -29 0 -7 10 -22 22 -32 11 -11 16 -19 9 -19 -19 0 77 -90
96 -91 11 0 13 -3 6 -6 -16 -6 8 -33 29 -33 8 0 20 -9 28 -20 8 -11 22 -20 32
-20 10 0 18 -4 18 -10 0 -5 9 -10 20 -10 11 0 20 -4 20 -10 0 -5 5 -10 11 -10
5 0 7 6 4 13 -4 6 2 2 13 -10 25 -28 76 -29 59 -2 -6 10 -14 16 -18 13 -12 -7
-89 73 -89 93 0 11 -3 14 -8 7 -5 -9 -10 -8 -19 1 -10 11 -10 15 0 18 9 4 9 6
0 6 -7 1 -13 10 -13 22 0 11 -4 17 -10 14 -5 -3 -10 1 -10 9 0 9 -4 16 -10 16
-5 0 -9 3 -9 8 1 4 1 16 -1 27 l-1 20 -9 -20 c-10 -24 -12 -14 -11 65 0 41 -2
50 -9 35 -7 -15 -9 -9 -10 30 -1 38 -4 45 -10 30 -6 -13 -9 19 -10 90 -1 71
-4 103 -10 90 -8 -18 -9 -18 -10 5 -2 14 -1 29 0 35 1 5 2 18 3 27 1 10 9 21
19 24 10 3 18 13 18 21 0 9 -3 13 -7 10 -3 -4 -12 5 -20 19 -15 31 -18 98 -3
89 6 -4 10 17 10 55 0 38 4 59 10 55 6 -4 10 10 10 35 0 25 4 39 10 35 6 -4
10 9 10 32 0 29 -3 35 -11 23 -8 -12 -9 -11 -7 5 2 12 10 19 21 17 11 -2 17 4
17 18 0 11 5 20 10 20 6 0 10 12 10 26 0 14 4 23 10 19 6 -3 10 4 10 18 0 28
79 117 105 117 9 0 13 5 10 10 -3 6 -1 10 5 10 12 0 40 24 40 34 0 3 -13 6
-30 6 -16 0 -30 -4 -30 -10z"/>
<path d="M9532 4860 c0 -14 2 -19 5 -12 2 6 2 18 0 25 -3 6 -5 1 -5 -13z"/>
<path d="M2503 4775 c0 -33 2 -45 4 -27 2 18 2 45 0 60 -2 15 -4 0 -4 -33z"/>
<path d="M5600 4738 c0 -19 2 -20 10 -8 13 19 13 30 0 30 -5 0 -10 -10 -10
-22z"/>
<path d="M5971 4534 c0 -11 3 -14 6 -6 3 7 2 16 -1 19 -3 4 -6 -2 -5 -13z"/>
<path d="M2501 4314 c0 -11 3 -14 6 -6 3 7 2 16 -1 19 -3 4 -6 -2 -5 -13z"/>
<path d="M2504 4185 c0 -60 1 -84 3 -52 2 32 2 81 0 110 -2 29 -3 3 -3 -58z"/>
<path d="M5743 4215 c0 -38 2 -53 4 -32 2 20 2 52 0 70 -2 17 -4 1 -4 -38z"/>
<path d="M5973 4165 c0 -27 2 -38 4 -22 2 15 2 37 0 50 -2 12 -4 0 -4 -28z"/>
<path d="M2503 4015 c0 -33 2 -45 4 -27 2 18 2 45 0 60 -2 15 -4 0 -4 -33z"/>
<path d="M5613 3725 c-13 -14 -18 -45 -7 -45 11 0 34 29 34 44 0 20 -11 20
-27 1z"/>
<path d="M5580 3676 c0 -9 5 -16 10 -16 6 0 10 4 10 9 0 6 -4 13 -10 16 -5 3
-10 -1 -10 -9z"/>
<path d="M5554 3662 c-6 -4 -14 -20 -18 -35 l-7 -29 27 27 c25 25 23 54 -2 37z"/>
<path d="M5472 3580 c-7 -12 -8 -20 -2 -20 5 0 10 5 10 10 0 6 6 10 14 10 8 0
18 5 21 10 3 6 -2 10 -12 10 -10 0 -24 -9 -31 -20z"/>
<path d="M6630 3550 c-12 -8 -10 -10 8 -10 13 0 20 4 17 10 -7 12 -6 12 -25 0z"/>
<path d="M8048 3523 c6 -2 18 -2 25 0 6 3 1 5 -13 5 -14 0 -19 -2 -12 -5z"/>
</g>
</svg>
