<svg xmlns="http://www.w3.org/2000/svg" data-name="Layer 1" viewBox="0 0 100 125" x="0px" y="0px"><defs><style>.cls-1{fill-rule:evenodd;}</style></defs><title>a</title><path class="cls-1" d="M80.283,49.359q2.5-1.922,5.047-4.155,2.334-2.049,4.692-4.356-1.642-1.606-3.305-3.116Q66.544,19.42,47.4,19.5q-19.124.081-37.456,18.527-1.338,1.347-2.7,2.818Q20.68,55.4,34.535,60.034a41.434,41.434,0,0,0,28.287-.7A16.684,16.684,0,0,1,78.15,49.224a16.859,16.859,0,0,1,2.133.135ZM51.835,32.085A4.43,4.43,0,1,0,57.4,38.49c.067-.106.129-.214.186-.325a9.308,9.308,0,1,1-5.755-6.08ZM59.614,29.9a15.481,15.481,0,1,1-10.947-4.534A15.436,15.436,0,0,1,59.614,29.9Zm-10.947-.43A11.376,11.376,0,1,1,40.623,32.8a11.343,11.343,0,0,1,8.044-3.332ZM88.479,55.563A14.608,14.608,0,1,1,78.15,51.285a14.562,14.562,0,0,1,10.329,4.278Zm-7.866,2.864v5h5v4.925h-5v5H75.687v-5h-5V63.429h5v-5ZM48.667,23.306a17.541,17.541,0,1,1-12.4,5.138A17.49,17.49,0,0,1,48.667,23.306Z"/><text x="0" y="115" fill="#000000" font-size="5px" font-weight="bold" font-family="'Helvetica Neue', Helvetica, Arial-Unicode, Arial, Sans-serif">Created by Good Wife</text><text x="0" y="120" fill="#000000" font-size="5px" font-weight="bold" font-family="'Helvetica Neue', Helvetica, Arial-Unicode, Arial, Sans-serif">from the Noun Project</text></svg>