<?xml version="1.0" standalone="no"?>
<!DOCTYPE svg PUBLIC "-//W3C//DTD SVG 20010904//EN"
 "http://www.w3.org/TR/2001/REC-SVG-20010904/DTD/svg10.dtd">
<svg version="1.0" xmlns="http://www.w3.org/2000/svg"
 width="693.000000pt" height="721.000000pt" viewBox="0 0 693.000000 721.000000"
 preserveAspectRatio="xMidYMid meet">

<g transform="translate(0.000000,721.000000) scale(0.100000,-0.100000)"
fill="#000000" stroke="none">
<path d="M3370 6876 c-255 -45 -452 -218 -538 -471 l-27 -80 -3 -875 c-1 -613
-5 -881 -13 -896 -6 -12 -22 -27 -35 -33 -17 -7 -301 -11 -936 -11 -890 0
-915 0 -986 -20 -277 -77 -470 -301 -502 -582 -29 -247 67 -477 259 -627 76
-59 152 -96 249 -120 78 -20 104 -21 1016 -21 745 0 938 -3 941 -13 3 -7 7
-415 8 -907 4 -1000 -1 -928 78 -1088 31 -65 59 -101 118 -160 160 -159 334
-220 571 -202 257 20 470 172 572 408 57 131 58 147 58 1067 0 815 1 844 19
866 l19 24 914 5 c892 6 914 6 974 26 115 40 185 84 279 179 92 91 123 140
167 264 25 69 36 280 19 361 -55 254 -243 452 -496 519 -78 21 -97 21 -985 24
l-905 2 -5 900 c-5 834 -6 905 -23 965 -99 349 -443 560 -807 496z"/>
</g>
</svg>
