<?xml version="1.0" standalone="no"?>
<!DOCTYPE svg PUBLIC "-//W3C//DTD SVG 20010904//EN"
 "http://www.w3.org/TR/2001/REC-SVG-20010904/DTD/svg10.dtd">
<svg version="1.0" xmlns="http://www.w3.org/2000/svg"
 width="32.000000pt" height="32.000000pt" viewBox="0 0 32.000000 32.000000"
 preserveAspectRatio="xMidYMid meet">

<g transform="translate(0.000000,32.000000) scale(0.100000,-0.100000)"
fill="#000000" stroke="none">
<path d="M150 290 c0 -5 5 -10 10 -10 6 0 10 5 10 10 0 6 -4 10 -10 10 -5 0
-10 -4 -10 -10z"/>
<path d="M147 243 c-4 -3 -7 -16 -7 -28 0 -14 6 -21 20 -21 20 0 25 12 14 40
-7 17 -16 20 -27 9z"/>
<path d="M76 201 c-36 -39 -74 -181 -48 -181 25 0 82 23 82 33 0 6 7 1 16 -11
19 -28 49 -28 68 0 9 12 16 17 16 11 0 -10 57 -33 83 -33 25 0 -13 142 -49
181 -20 23 -54 25 -54 4 0 -8 6 -12 14 -9 8 3 17 1 21 -5 4 -7 -1 -8 -12 -4
-16 6 -17 5 -3 -13 11 -15 11 -16 0 -6 -20 17 -32 15 -26 -5 2 -10 7 -27 10
-38 5 -18 1 -20 -34 -20 -33 0 -39 2 -35 17 3 10 8 27 11 38 6 23 -5 26 -26 8
-11 -10 -11 -9 0 6 14 18 13 19 -3 13 -11 -4 -16 -3 -12 4 4 6 13 8 21 5 8 -3
14 1 14 9 0 21 -34 19 -54 -4z m28 -66 c3 -8 3 -22 0 -30 -4 -8 -1 -15 5 -15
6 0 11 -4 11 -10 0 -5 -7 -10 -15 -10 -8 0 -14 3 -14 8 3 20 -3 22 -18 5 -10
-10 -15 -14 -10 -9 11 15 8 28 -5 20 -7 -4 -8 -3 -4 5 4 6 12 9 17 6 5 -4 9
-1 9 5 0 6 5 8 10 5 6 -3 10 -2 10 4 0 5 -8 15 -17 20 -16 9 -16 10 -2 11 9 0
19 -7 23 -15z m134 4 c-10 -5 -18 -15 -18 -20 0 -6 5 -7 10 -4 6 3 10 1 10 -5
0 -6 4 -9 9 -5 5 3 13 0 17 -6 4 -8 3 -9 -4 -5 -13 8 -16 -5 -4 -20 4 -5 -1
-1 -10 9 -16 17 -22 15 -19 -6 0 -4 -6 -7 -14 -7 -8 0 -15 5 -15 10 0 6 5 10
11 10 6 0 9 7 5 15 -8 22 4 45 23 45 14 -1 14 -2 -1 -11z m-65 -76 c-7 -2 -19
-2 -25 0 -7 3 -2 5 12 5 14 0 19 -2 13 -5z"/>
</g>
</svg>
